<?xml version="1.0" encoding="UTF-8"?>
<svg class="bi bi-collection" fill="currentColor" version="1.1" viewBox="0 0 50 50" xmlns="http://www.w3.org/2000/svg">
 <path d="m8.1728 12.762a1.5297 1.5297 0 0 1 0-3.0595h33.654a1.5297 1.5297 0 0 1 0 3.0595zm6.119-6.119a1.5297 1.5297 0 0 1 0-3.0595h21.416a1.5297 1.5297 0 0 1 0 3.0595zm-13.768 35.184a4.5892 4.5892 0 0 0 4.5892 4.5892h39.773a4.5892 4.5892 0 0 0 4.5892-4.5892v-21.416a4.5892 4.5892 0 0 0-4.5892-4.5892h-39.773a4.5892 4.5892 0 0 0-4.5892 4.5892zm4.5892 1.5297a1.5297 1.5297 0 0 1-1.5297-1.5297v-21.416a1.5297 1.5297 0 0 1 1.5297-1.5297h39.773a1.5297 1.5297 0 0 1 1.5297 1.5297v21.416a1.5297 1.5297 0 0 1-1.5297 1.5297z"/>
</svg>
