<?xml version="1.0" encoding="UTF-8"?>
<svg width="100" height="100" version="1.1" viewBox="0 0 26.458 26.458" xmlns="http://www.w3.org/2000/svg">
 <g transform="matrix(.23535 0 0 .23535 -10.287 -14.405)" stroke-width="0">
  <path d="m140.18 73.885a6.8421 6.3568 0 0 0-4.0302 1.2689l-0.11782-0.10418-8.4072 6.2553-18.663 13.852h-26.858c-11.512 0-20.78 8.6107-20.78 19.306v19.777c0 10.695 9.2676 19.306 20.78 19.306h44.094c11.512 0 20.78-8.6102 20.78-19.306v-19.777c0-0.81065-0.0599-1.6076-0.1633-2.3914l-0.0791-16.915-0.0408-10.705-0.62683-0.51996-0.19327-0.17092a6.8421 6.3568 0 0 0 0.81132-1.6564l-0.0145-3.7717a6.8421 6.3568 0 0 0-6.4911-4.4473z" fill="#753dd0"/>
  <path d="m59.657 75.211a6.8421 6.8421 0 0 1 4.0302 1.3658l0.11782-0.11214 8.4072 6.7329 18.663 14.91h26.858c11.512 0 20.78 9.2681 20.78 20.78v21.287c0 11.512-9.2676 20.78-20.78 20.78h-44.094c-11.512 0-20.78-9.2676-20.78-20.78v-21.287c0-0.87254 0.05987-1.7303 0.1633-2.574l0.07906-18.207 0.04083-11.523 0.62684-0.55966 0.19327-0.18397a6.8421 6.8421 0 0 1-0.81132-1.7828l0.01447-4.0597a6.8421 6.8421 0 0 1 6.4911-4.7868z" fill="#0ed1e5" fill-opacity=".7669" opacity=".71748"/>
  <g fill="#fff">
   <circle cx="75.207" cy="126.15" r="6.8092"/>
   <circle cx="125.48" cy="126.15" r="6.8092"/>
   <circle cx="99.548" cy="126.15" r="3.7683"/>
  </g>
 </g>
</svg>
