<?xml version="1.0" encoding="UTF-8"?>
<svg width="130" height="130" version="1.1" viewBox="0 0 34.396 34.396" xmlns="http://www.w3.org/2000/svg">
 <defs>
  <filter id="filter33836" x="-.16509" y="-.68946" width="1.3302" height="2.3789" color-interpolation-filters="sRGB">
   <feGaussianBlur stdDeviation="0.22893468"/>
  </filter>
  <filter id="filter33840" x="-.12713" y="-.53095" width="1.2543" height="2.0619" color-interpolation-filters="sRGB">
   <feGaussianBlur stdDeviation="0.17630164"/>
  </filter>
  <filter id="filter34244" x="-.051413" y="-.66665" width="1.1028" height="2.3333" color-interpolation-filters="sRGB">
   <feGaussianBlur stdDeviation="0.3906372"/>
  </filter>
  <filter id="filter34244-8" x="-.051413" y="-.66665" width="1.1028" height="2.3333" color-interpolation-filters="sRGB">
   <feGaussianBlur stdDeviation="0.3906372"/>
  </filter>
  <filter id="filter33836-4" x="-.16509" y="-.68946" width="1.3302" height="2.3789" color-interpolation-filters="sRGB">
   <feGaussianBlur stdDeviation="0.22893468"/>
  </filter>
  <filter id="filter33840-3" x="-.12713" y="-.53095" width="1.2543" height="2.0619" color-interpolation-filters="sRGB">
   <feGaussianBlur stdDeviation="0.17630164"/>
  </filter>
 </defs>
 <g transform="matrix(.77682 0 0 .77752 -23.585 -39.809)" fill-opacity=".98039">
  <g stroke-width="0">
   <rect x="47.539" y="77.911" width="14.651" height="2.9833" ry=".82035"/>
   <ellipse cx="55.351" cy="94.557" rx="9.1177" ry=".70316" fill="#1a1a1a" filter="url(#filter34244-8)"/>
   <ellipse cx="55.351" cy="94.557" rx="9.1177" ry=".70316" fill="#1a1a1a" filter="url(#filter34244)"/>
  </g>
  <path d="m54.614 52.002c-2.206 0-5.4141 0.2439-7.3706 0.60513-2.0703 0.38223-2.4669 0.57271-4.3289 0.99684-1.862 0.42414-6.1614 2.3664-6.9898 2.7636-0.75089 0.36006-1.6588 0.47354-1.6485 1.0475 0.0158 0.87696 0.88925 1.2879 1.172 1.5596 0.70089 0.67357 1.1814 1.0368 1.6852 1.7875 1.2715 1.8948 1.7689 2.6358 1.7689 4.6312s0.57955 4.8246 1.388 6.5536 1.4482 2.8885 2.8939 4.1961c1.4456 1.3077 0.99885 1.2837 4.6809 2.5668 0.699 0.24358 1.5124 0.48563 2.3823 0.66094-1.8395 0.22873-4.9399 3.0056-5.677 5.3715-0.87017 2.7931 0.57531 5.064 2.4585 4.3412 1.6265-0.55525 1.2671-3.9187 1.6199-2.6713 0.0723 1.4084-0.11208 1.6341-0.27344 2.4602-0.04 0.52862-0.0861 1.1306-0.0799 1.6186 3e-3 0.24401-0.0309 0.51443 7e-3 0.86661 0.0376 0.3522-0.11093-3e-3 0.15606 0.98134 0.22641 0.8348 0.59714 1.4125 1.047 1.7425 0.44688 0.32783 1.1411 0.68678 2.002 0.68678 0.59438 0 1.3522-0.42766 1.5043-0.6196 0.38224-0.4437 0.5266-1.1874 0.53485-1.771-0.0234-1.5173 0.79862-0.46339 1.6294-0.63304 0.9182-0.1875 1.3304-0.55188 1.4413 0.63304 0.18653 0.84951 0.28967 1.2698 0.5674 1.7012 0.50403 0.55114 0.62767 0.49271 0.971 0.61805 1.0602 0.38699 1.6931 0.0379 2.0459-0.0982 0.44629-0.17219 0.68952-0.40618 0.97875-0.74414 0.27784-0.32464 0.4355-0.72906 0.56638-1.1312 0.38123-1.1713 0.17619-2.615 0.0233-3.361 0.1372-0.34417-1.439-5.4577-0.62219-3.3533 1.0257 2.7398 0.90219 3.5861 2.6448 3.0432 1.7426-0.54288 1.9812-2.3564 1.111-5.1496-0.77759-2.4959-4.2489-4.2696-5.9392-4.5 6.8104-1.5156 11.759-6.7776 11.759-13.479 0-1.9954-0.31445-4.4267-1.1229-6.1557-0.80849-1.729-1.9118-3.5515-3.3574-4.8591-1.4456-1.3077-2.7695-1.6696-5.0788-2.1689-2.0004-0.43251-4.3445-0.73794-6.5505-0.73794z" fill="#fff" stroke="#000" stroke-width=".51469"/>
  <g stroke-width="0">
   <ellipse class="eyes1" cx="45.718" cy="65.353" rx="2.5314" ry="2.5783"/>
   <ellipse class="eyes1" cx="62.975" cy="65.236" rx="2.5314" ry="2.5783"/>
   <path class="mouth" d="m57.202 71.027c-0.21388-0.78123-1.1092 0.81352-2.2895 0.81406-1.2354-0.18441-2.2296-1.4349-2.3947-0.5637 0.0165 0.76035 1.1835 1.243 2.5107 1.2431 1.3822-1e-3 2.3493-0.85136 2.1735-1.4935z" fill="#28170b"/>
   <g fill="#faa">
    <ellipse cx="45.882" cy="69.898" rx="1.6641" ry=".39846" filter="url(#filter33836)" style="mix-blend-mode:normal"/>
    <ellipse cx="63.345" cy="69.898" rx="1.6641" ry=".39846" filter="url(#filter33840)" style="mix-blend-mode:normal"/>
    <ellipse cx="45.882" cy="69.898" rx="1.6641" ry=".39846" filter="url(#filter33836-4)" style="mix-blend-mode:normal"/>
    <ellipse cx="63.345" cy="69.898" rx="1.6641" ry=".39846" filter="url(#filter33840-3)" style="mix-blend-mode:normal"/>
   </g>
   <path d="m49.552 79.539c0.88105-0.0199 0.26834-0.38773 0.1172 0.7852l-0.98868 8.0619c-0.0553 0.45111 0.42495-1.6364-0.0295-1.6364-0.45447 0-0.0662 0.0407-0.0833-0.41348l-0.23439-6.1878c-0.0172-0.45415 0.76433-0.60941 1.2188-0.60941z" fill="#1a1a1a"/>
   <path d="m60.052 79.563c-0.88105-0.0199-0.26834-0.38773-0.1172 0.7852l0.98868 8.0619c0.0553 0.45111-0.42495-1.6364 0.0295-1.6364 0.45447 0 0.0662 0.0407 0.0833-0.41348l0.23439-6.1878c0.0172-0.45415-0.76433-0.60941-1.2188-0.60941z" fill="#1a1a1a"/>
  </g>
 </g>
</svg>
