<?xml version="1.0" encoding="UTF-8"?>
<svg version="1.1" viewBox="0 0 20 20" xml:space="preserve" xmlns="http://www.w3.org/2000/svg">

<g transform="matrix(.039249 0 0 .039249 .26312 .26312)" stroke-width="25.478"><path d="m0 248.08c0-137.02 111.07-248.08 248.08-248.08 137.01 0 248.08 111.06 248.08 248.08 0 137-111.07 248.07-248.08 248.07-137.01 0-248.08-111.07-248.08-248.07z" fill="#3effffcc"/><g fill="#000000">
	<circle cx="146.49" cy="248.97" r="53.807"/>
	<circle cx="310.75" cy="153.32" r="53.807"/>
	<circle cx="310.75" cy="342.84" r="53.807"/>
	
		<rect transform="matrix(-.5032 -.8642 .8642 -.5032 171.42 497.19)" x="214.16" y="104.29" width="28.933" height="190.07"/>
	
		<rect transform="matrix(-.8642 -.5032 .5032 -.8642 277.77 664.97)" x="133.61" y="280.53" width="190.07" height="28.933"/>
</g></g>















</svg>
