<?xml version="1.0" encoding="UTF-8"?>
<svg id="SVGRoot" width="16px" height="16px" version="1.1" viewBox="0 0 16 16" xmlns="http://www.w3.org/2000/svg">
 <path d="m562.8 241.29c-4.7536-0.39463-9.6646 1.0343-13.609 4.3747l-59.657 50.503-133.96 117.61c-7.7689 6.82-8.527 18.57-1.7067 26.338l170.01 193.66c3.41 3.8843 8.0501 6.0237 12.81 6.3331 1.1033 0.0694 2.2121 0.0368 3.3148-0.1044l142.36-120.53 62.082-54.501c3.2743-6.4835 2.5689-14.545-2.4344-20.455l-166.51-196.68c-3.3399-3.945-7.9395-6.163-12.693-6.5577zm0 0c-4.7536-0.39463-9.6646 1.0343-13.609 4.3747l-428.87 363.11c-7.8898 6.6798-8.8628 18.404-2.1829 26.293l71.551 84.513h256.33l293.8-248.75c7.8896-6.6798 8.8626-18.413 2.1828-26.302l-166.51-196.68c-3.3399-3.945-7.9395-6.163-12.693-6.5577z" fill="#fff" fill-opacity=".98039" stroke="#000" stroke-width="8.6917"/>
</svg>
